<?xml version="1.0" encoding="UTF-8"?>
<svg id="Calque_1" data-name="Calque 1" xmlns="http://www.w3.org/2000/svg" version="1.1" viewBox="0 0 151.54945 151.54945">
  <defs>
    <style>
      .cls-1 {
        fill: #000;
      }

      .cls-1, .cls-2 {
        stroke-width: 0px;
      }

      .cls-2 {
        fill: #fff;
      }
    </style>
  </defs>
  <rect class="cls-2" x="0" y="0" width="151.54945" height="151.54945" rx="75.77465" ry="75.77465"/>
  <path class="cls-1" d="M115.92045,68.19361h-34.92385l.15424-.90913c2.51342-12.42817,10.61233-16.75646,17.87375-16.75646h1.11681c7.95949,0,15.22042,4.6081,15.77906,16.75646v.90913h-.00002ZM35.62899,90.74323c0-6.42297,6.00471-10.333,14.10361-11.03106l9.95202-.80263c2.34157-.1888,4.91696-.87379,7.36261-2.06273v8.59026c0,9.53715-10.7106,16.0429-20.24727,15.36032-6.407-.45843-11.17097-3.5426-11.17097-10.05416M129.18611,70.98635c0-18.15306-11.45031-31.62978-29.60337-31.62978-8.93687,0-17.87375,3.49129-24.01739,10.75223-4.88742-6.98161-13.40555-10.75223-23.59865-10.75223-13.87367,0-24.50536,6.8025-27.44091,17.17714l11.57809,4.16418c2.08064-6.50188,8.04324-10.16987,15.5835-10.16987h.69807c7.33307,0,12.38605,3.64766,14.05666,10.20327,1.13084,4.54178-1.31529,7.35388-5.01862,7.84233l-13.50625,1.08437c-11.31087.97787-25.5539,5.72539-25.5539,21.64388,0,11.86951,9.78307,20.37651,23.04,20.8485,5.83867.34081,20.2003-1.12019,27.78558-13.58612,4.65022,7.79635,13.90611,13.4041,26.63102,13.4041,12.9747,0,24.34126-6.13541,28.17285-17.69898l-11.30845-4.06737c-3.16064,7.00243-8.86281,10.59538-15.70499,10.59538h-1.11729c-8.35305,0-18.31088-6.85429-19.48384-22.13135h48.8079v-7.67968h-.00002Z"/>
</svg>